<svg width="18" height="14" viewBox="0 0 18 14" fill="none" xmlns="http://www.w3.org/2000/svg">
<path d="M18 1.70512C17.3571 1.97435 16.6225 2.15385 15.8878 2.24359C16.6225 1.79487 17.2653 1.07693 17.5408 0.269233C16.8061 0.717951 16.0714 0.987182 15.1531 1.16667C14.5102 0.448721 13.5 0 12.4898 0C10.4694 0 8.81632 1.61538 8.81632 3.58974C8.81632 3.85897 8.81633 4.1282 8.90816 4.39743C5.87755 4.21794 3.12244 2.78205 1.28571 0.628202C1.0102 1.16666 0.826525 1.79487 0.826525 2.42307C0.826525 3.67948 1.46939 4.75641 2.47959 5.38461C1.83673 5.38461 1.28571 5.20513 0.826525 4.9359C0.826525 6.64102 2.11224 8.16666 3.7653 8.43589C3.48979 8.52563 3.12245 8.52564 2.7551 8.52564C2.47959 8.52564 2.29592 8.52563 2.02041 8.43589C2.47959 9.87179 3.85714 10.9487 5.51021 10.9487C4.22449 11.9359 2.66327 12.4743 0.918368 12.4743C0.642857 12.4743 0.367347 12.4744 0 12.3846C1.65306 13.3718 3.58163 14 5.69388 14C12.4898 14 16.1633 8.52563 16.1633 3.76923V3.32051C16.898 3.05128 17.5408 2.42307 18 1.70512Z" fill="white"/>
</svg>
