<svg width="18" height="13" viewBox="0 0 18 13" fill="none" xmlns="http://www.w3.org/2000/svg">
<path fill-rule="evenodd" clip-rule="evenodd" d="M1.85113 12.6159C1.53018 12.5153 1.23735 12.3364 0.997328 12.0942C0.757308 11.852 0.577148 11.5537 0.472048 11.2244C-0.128519 9.52239 -0.306465 2.41534 0.850182 1.01233C1.23514 0.555922 1.77864 0.274923 2.36272 0.230325C5.46565 -0.114678 15.0525 -0.0686769 16.1535 0.345326C16.4632 0.449213 16.7461 0.624222 16.9811 0.857239C17.2161 1.09026 17.397 1.37524 17.5104 1.69083C18.1665 3.45035 18.1888 9.84439 17.4214 11.5349C17.2178 11.9749 16.877 12.3314 16.4538 12.5469C15.2972 13.1449 3.38591 13.1334 1.85113 12.6159ZM6.778 9.28089L12.3388 6.29087L6.778 3.27784V9.28089Z" fill="white"/>
</svg>
